<?xml version="1.0" encoding="utf-8"?>
<!-- Generator: Adobe Illustrator 16.0.3, SVG Export Plug-In . SVG Version: 6.00 Build 0)  -->
<!DOCTYPE svg PUBLIC "-//W3C//DTD SVG 1.1//EN" "http://www.w3.org/Graphics/SVG/1.1/DTD/svg11.dtd">
<svg version="1.1" id="Capa_1" xmlns="http://www.w3.org/2000/svg" xmlns:xlink="http://www.w3.org/1999/xlink" x="0px" y="0px"
	 width="512px" height="512px" viewBox="0 0 512 512" enable-background="new 0 0 512 512" xml:space="preserve">
<path fill="#0E103D" d="M501.991,128.354l-241-85.031c-3.229-1.14-6.752-1.14-9.981,0l-241,85.031
	C4.018,130.468,0.008,136.128,0,142.482s3.989,12.023,9.976,14.151l241,85.677c1.625,0.578,3.325,0.867,5.024,0.867
	c1.7,0,3.398-0.289,5.023-0.867l241.001-85.677c5.986-2.128,9.982-7.797,9.976-14.151
	C511.992,136.128,507.982,130.468,501.991,128.354z"/>
<path fill="#0E103D" d="M475.973,328.574v-130.84l-30,10.665v120.175c-9.036,5.201-15.125,14.945-15.125,26.121
	c0,11.174,6.089,20.92,15.125,26.121v73.716c0,8.284,6.717,15,15,15c8.284,0,15-6.716,15-15v-73.716
	c9.036-5.199,15.125-14.946,15.125-26.121C491.098,343.521,485.01,333.775,475.973,328.574z"/>
<path fill="#0E103D" d="M256,273.177c-5.149,0-10.22-0.875-15.073-2.6l-135.483-48.165v66.008c0,16.148,16.847,29.807,50.073,40.59
	c28.961,9.4,64.647,14.577,100.483,14.577s71.521-5.177,100.483-14.577c33.226-10.783,50.072-24.441,50.072-40.59v-66.008
	l-135.481,48.165C266.221,272.302,261.148,273.177,256,273.177z"/>
</svg>
